# xmcd
#
# Track frame offsets:
#	150
#	17330
#	33820
#	47850
#	64135
#	80977
#	96915
#	116735
#	130280
#	143855
#	161720
#
# Disc length: 2429 seconds
#
# Revision: 0
# Processed by: cddbd v1.5.2PL0 Copyright (c) Steve Scherf et al.
# Submitted via: dBpowerAMP V4.0
#
DISCID=97097b0b
DTITLE=Matti and Teppo - Luotuja kulkemaan
DYEAR=1997
DGENRE=Finnish
TTITLE0=Tuuletellaan
TTITLE1=Sydän lyö kipinää
TTITLE2=Maailmanmies
TTITLE3=Nyt olen valmis rakkauteen uuteen
TTITLE4=Kesäkaipuu
TTITLE5=On pakko uskoo
TTITLE6=Luotuja kulkemaan
TTITLE7=Kaiken kauniin rinnalla (Octe la Notte)
TTITLE8=Anna mä jään
TTITLE9=Kukatkin kääntyvät valoon
TTITLE10=Vanha kuu (Du gamle måne)
EXTD=Matti ja teppo
EXTT0=
EXTT1=
EXTT2=
EXTT3=
EXTT4=
EXTT5=
EXTT6=
EXTT7=
EXTT8=
EXTT9=
EXTT10=
PLAYORDER=
